<?xml version="1.0" encoding="UTF-8"?>
<svg width="148px" height="31px" viewBox="0 0 148 31" version="1.1" xmlns="http://www.w3.org/2000/svg" xmlns:xlink="http://www.w3.org/1999/xlink">
    <title>willread</title>
    <g id="Page-1" stroke="none" stroke-width="1" fill="none" fill-rule="evenodd">
        <g id="Homepage" transform="translate(-561.000000, -233.000000)" fill="#000000" fill-rule="nonzero">
            <path d="M587.12,263.24 L593.32,243.48 L588.24,243.48 L584.56,256.88 L580.2,243.28 L575.32,243.28 L571,256.72 L566.92,243.4 L561.8,243.4 L568.24,263.2 L573.4,263.2 L577.64,249.48 L581.96,263.24 L587.12,263.24 Z M598.269471,239.88 C599.149471,239.88 599.896138,239.586667 600.509471,239 C601.122804,238.413333 601.429471,237.68 601.429471,236.8 C601.429471,235.92 601.122804,235.186667 600.509471,234.6 C599.896138,234.013333 599.149471,233.72 598.269471,233.72 C597.389471,233.72 596.642804,234.013333 596.029471,234.6 C595.416138,235.186667 595.109471,235.92 595.109471,236.8 C595.109471,237.68 595.416138,238.413333 596.029471,239 C596.642804,239.586667 597.389471,239.88 598.269471,239.88 Z M600.869471,263.28 L600.869471,243.28 L595.749471,243.28 L595.749471,263.28 L600.869471,263.28 Z M609.978942,263.28 L609.978942,234.08 L604.818942,234.08 L604.818942,263.28 L609.978942,263.28 Z M619.328413,263.28 L619.328413,234.08 L614.168413,234.08 L614.168413,263.28 L619.328413,263.28 Z M636.907355,263.16 L636.907355,257.16 C636.907355,255.266667 636.940688,253.866667 637.007355,252.96 C637.074022,252.053333 637.207355,251.313333 637.407355,250.74 C637.607355,250.166667 637.934022,249.613333 638.387355,249.08 C638.840688,248.573333 639.394022,248.193333 640.047355,247.94 C640.700688,247.686667 641.387355,247.56 642.107355,247.56 C642.907355,247.56 643.627355,247.706667 644.267355,248 L645.587355,243.64 C644.787355,243.16 643.760688,242.92 642.507355,242.92 C641.734022,242.92 641.054022,243.026667 640.467355,243.24 C639.507355,243.586667 638.754022,244.013333 638.207355,244.52 C637.660688,245.026667 637.227355,245.68 636.907355,246.48 L636.907355,243.56 L632.107355,243.56 L632.107355,263.12 L636.907355,263.16 Z M655.776826,263.6 C657.403493,263.6 658.856826,263.32 660.136826,262.76 C661.416826,262.2 662.470159,261.493333 663.296826,260.64 C664.123493,259.786667 664.723493,258.906667 665.096826,258 L660.536826,256.64 C659.496826,258.64 657.776826,259.573333 655.376826,259.44 C654.256826,259.386667 653.323493,259.086667 652.576826,258.54 C651.830159,257.993333 651.276826,257.353333 650.916826,256.62 C650.556826,255.886667 650.376826,255.226667 650.376826,254.64 L665.456826,254.48 C665.483493,254.186667 665.496826,253.746667 665.496826,253.16 C665.496826,250.84 665.043493,248.906667 664.136826,247.36 C663.230159,245.813333 662.036826,244.673333 660.556826,243.94 C659.076826,243.206667 657.456826,242.84 655.696826,242.84 C653.856826,242.84 652.150159,243.226667 650.576826,244 C649.003493,244.773333 647.743493,245.94 646.796826,247.5 C645.850159,249.06 645.376826,250.973333 645.376826,253.24 C645.376826,255.16 645.803493,256.906667 646.656826,258.48 C647.510159,260.053333 648.723493,261.3 650.296826,262.22 C651.870159,263.14 653.696826,263.6 655.776826,263.6 Z M650.496826,250.88 C650.603493,249.786667 651.090159,248.866667 651.956826,248.12 C652.823493,247.373333 653.803493,246.96 654.896826,246.88 C655.990159,246.8 656.950159,246.953333 657.776826,247.34 C658.603493,247.726667 659.236826,248.24 659.676826,248.88 C660.116826,249.52 660.336826,250.173333 660.336826,250.84 L650.496826,250.88 Z M675.006297,263.76 C676.392964,263.76 677.59963,263.466667 678.626297,262.88 C679.652964,262.293333 680.446297,261.6 681.006297,260.8 L681.006297,260.8 L681.166297,263.2 L686.006297,263.2 L685.886297,250.08 C685.886297,248.64 685.45963,247.32 684.606297,246.12 C683.752964,244.92 682.486297,244 680.806297,243.36 C679.686297,242.96 678.512964,242.76 677.286297,242.76 C676.406297,242.76 675.546297,242.86 674.706297,243.06 C673.866297,243.26 673.126297,243.533333 672.486297,243.88 C671.312964,244.546667 670.412964,245.3 669.786297,246.14 C669.15963,246.98 668.752964,247.813333 668.566297,248.64 L668.566297,248.64 L672.846297,249.88 C673.112964,248.893333 673.592964,248.146667 674.286297,247.64 C674.97963,247.133333 675.806297,246.88 676.766297,246.88 C677.192964,246.88 677.69963,246.946667 678.286297,247.08 C679.13963,247.293333 679.752964,247.646667 680.126297,248.14 C680.49963,248.633333 680.686297,249.173333 680.686297,249.76 C680.686297,250.24 680.592964,250.64 680.406297,250.96 C678.61963,251.013333 676.73963,251.2 674.766297,251.52 C672.65963,251.813333 671.01963,252.466667 669.846297,253.48 C668.672964,254.493333 668.086297,255.88 668.086297,257.64 C668.086297,259.453333 668.71963,260.926667 669.986297,262.06 C671.252964,263.193333 672.926297,263.76 675.006297,263.76 Z M676.086297,259.96 C675.152964,259.96 674.406297,259.733333 673.846297,259.28 C673.286297,258.826667 673.006297,258.213333 673.006297,257.44 C673.006297,256.666667 673.246297,256.1 673.726297,255.74 C674.206297,255.38 674.812964,255.16 675.546297,255.08 C676.27963,255 677.326297,254.96 678.686297,254.96 C679.726297,254.96 680.526297,254.946667 681.086297,254.92 C681.112964,255.053333 681.126297,255.24 681.126297,255.48 C681.126297,256.466667 680.79963,257.366667 680.146297,258.18 C679.492964,258.993333 678.57963,259.533333 677.406297,259.8 C676.97963,259.906667 676.53963,259.96 676.086297,259.96 Z M697.795768,263.84 C699.209101,263.84 700.429101,263.58 701.455768,263.06 C702.482435,262.54 703.302435,261.84 703.915768,260.96 L703.915768,260.96 L704.115768,263.16 L708.835768,263.2 L708.755768,234 L703.915768,234.04 L703.955768,245.4 C703.182435,244.493333 702.282435,243.84 701.255768,243.44 C700.229101,243.04 699.182435,242.84 698.115768,242.84 C696.675768,242.84 695.222435,243.193333 693.755768,243.9 C692.289101,244.606667 691.062435,245.753333 690.075768,247.34 C689.089101,248.926667 688.595768,250.946667 688.595768,253.4 C688.595768,255.533333 689.055768,257.393333 689.975768,258.98 C690.895768,260.566667 692.069101,261.773333 693.495768,262.6 C694.922435,263.426667 696.355768,263.84 697.795768,263.84 Z M698.675768,259.24 C697.689101,259.24 696.795768,258.966667 695.995768,258.42 C695.195768,257.873333 694.569101,257.146667 694.115768,256.24 C693.662435,255.333333 693.435768,254.36 693.435768,253.32 C693.435768,252.2 693.669101,251.18 694.135768,250.26 C694.602435,249.34 695.235768,248.62 696.035768,248.1 C696.835768,247.58 697.702435,247.32 698.635768,247.32 C700.289101,247.32 701.582435,247.88 702.515768,249 C703.449101,250.12 703.915768,251.546667 703.915768,253.28 C703.915768,254.826667 703.509101,256.206667 702.695768,257.42 C701.882435,258.633333 700.542435,259.24 698.675768,259.24 Z" id="willread"></path>
        </g>
    </g>
</svg>